<?xml version="1.0" encoding="utf-8"?>
<!-- Generator: Adobe Illustrator 22.1.0, SVG Export Plug-In . SVG Version: 6.00 Build 0)  -->
<svg version="1.1" xmlns="http://www.w3.org/2000/svg" xmlns:xlink="http://www.w3.org/1999/xlink" x="0px" y="0px"
	 viewBox="0 0 1400 980" style="enable-background:new 0 0 1400 980;" xml:space="preserve">
<style type="text/css">
	.st0{fill:#FFFFFF;}
	.st1{fill:#D7F3FF;}
	.st2{fill:#B4D3A3;}
	.st3{fill:#9EB78D;}
	.st4{fill:#97AD5B;}
	.st5{fill:#CC7760;}
	.st6{fill:#4DA8BB;}
	.st7{fill:#707F3B;}
	.st8{fill:#87522D;}
	.st9{fill:#5E381D;}
	.st10{fill:#440235;}
	.st11{fill:#F9AE90;}
	.st12{fill:#AD6751;}
	.st13{fill:#EC5B44;}
	.st14{fill:#B74034;}
	.st15{fill:#FF7C6E;}
	.st16{fill:#8681BD;}
	.st17{fill:#AFAFF9;}
	.st18{fill:#B54135;}
</style>
<g id="Background">
	<rect x="0" y="0.4" class="st0" width="1400" height="980"/>
	<g id="Layer_1_1_">
	</g>
	<g id="Layer_2">
	</g>
</g>
<g id="object">
	<g>
		<path class="st1" d="M1187.8,188.5c31.4-0.6,65.2-0.2,90.6,18.3c30.2,22,39.1,62.5,44.4,99.5c16.5,115.7,19.4,233.3,8.3,349.6
			c-4.7,49.4-17.1,106.3-61.7,128.1c-17.7,8.6-37.9,10.1-57.6,11.4C867,817.5,520.5,812.8,176.5,781.6c-32.3-2.9-68.1-7.9-88.6-33
			c-12.7-15.5-17-36-20.7-55.6c-14.2-75.1-24.5-150.8-31-227c-4.8-56.2-6.6-140.1,57.4-163.7c64.6-23.8,148.5-25.1,216.3-36
			c185.2-29.6,371.7-51,558.8-63.9C974.9,195.1,1081.3,190.4,1187.8,188.5z"/>
		<path class="st0" d="M1169.5,241.2c-21.3,32.1-33.7,74.1-68.3,91.1c-26,12.8-57.7,7.3-84.4,18.3
			c-58.1,23.8-66.7,110.3-122.9,138.2c-34.6,17.2-76.7,6.5-114.2,15.8C720.1,519.6,684,580.4,632,612.4c28.1-1.4,56.3-2.9,84.4-4.3
			c103.6-5.3,207.2-10.6,310.8-15.9c103.2-5.3,206.4-10.6,309.3-19.3c3.4-89-1.2-178.4-13.8-266.5c-5.3-37-14.2-77.5-44.4-99.5
			c-15.2-11.1-33.4-15.7-52.4-17.4C1203.5,202,1183.8,219.6,1169.5,241.2z"/>
		<path class="st1" d="M1304.1,237.7c-0.3,0.2-0.5,0.4-0.8,0.6c-35.8,27.9-65.7,64.9-78.9,108.3c-10.4,34.2-11,72.9-33.3,100.8
			c-28.9,36.1-81.5,39.3-124.4,56.6c-34.2,13.8-64.1,38.3-84.5,69.1c-5,7.6-9.7,15.8-16.1,22.1c20.4-1,40.8-2.1,61.2-3.1
			c103.2-5.3,206.4-10.6,309.3-19.3c3.4-89-1.2-178.4-13.8-266.5C1319.5,283,1314.7,258.3,1304.1,237.7z"/>
		<path class="st0" d="M753.7,732.6c0.5,0.5,1,0.9,1.3,1.1c-47,0.6-97.3,0.3-136.4-25.8c-42.9-28.6-66.6-84.9-115.9-100
			c-32.8-10.1-73.6-0.4-98.3-24.2c-15.5-14.9-18.9-38.3-30.8-56.1c-17.6-26.4-51-37.1-82.3-42.7c-31.3-5.6-64.3-8.2-91.3-25.1
			c-51.8-32.4-71.2-111-131.1-122.8c-5.2-1-10.5-1.5-15.7-1.4C30.8,372,32.7,426,36.1,466c6.5,76.1,16.8,151.9,31,227
			c3.7,19.7,8.1,40.1,20.7,55.6c20.5,25.1,56.3,30.1,88.6,33c222.7,20.2,446.4,29.3,670,27.2c-1-1.4-2-2.8-3.1-4.1
			C819.8,773.9,788.8,749,753.7,732.6z"/>
		<path class="st1" d="M568.2,780.7c-45.7,0.9-91.3-21.1-118.9-57.5c-16.2-21.4-27.5-48.1-50.6-61.6c-35.2-20.5-87.4-3.9-115-33.9
			c-14.9-16.2-17.3-41.9-34.2-56.1c-23.4-19.7-59.4-6.7-89.1-14.4c-31.1-8.1-50.8-37.5-72.4-61.2c-13.8-15.1-32.9-29-52.2-33.1
			c0.1,1,0.2,2,0.3,3.1c6.5,76.1,16.8,151.9,31,227c3.7,19.7,8.1,40.1,20.7,55.6c20.5,25.1,56.3,30.1,88.6,33
			c143.2,13,286.8,21.4,430.5,25.2C597,791.5,585.4,780.4,568.2,780.7z"/>
		<path class="st2" d="M1027.3,592.1c-103.6,5.3-207.2,10.6-310.8,15.9c-206,10.6-412.1,21.1-618.3,20.5c-14.1,0-28.2-0.1-42.3-0.5
			c3.4,21.7,7.2,43.3,11.2,64.8c3.7,19.7,8.1,40.1,20.7,55.6c20.5,25.1,56.3,30.1,88.6,33c344.1,31.3,690.6,35.9,1035.4,13.8
			c19.7-1.3,39.9-2.7,57.6-11.4c44.6-21.8,57.1-78.7,61.7-128.1c2.6-27.6,4.4-55.3,5.5-83C1233.7,581.5,1130.5,586.8,1027.3,592.1z"
			/>
		<path class="st3" d="M637.2,667.6c16.2,15.9,39.6,21.4,61.9,25.8c198.8,39.4,402.8,41.9,604.8,59.2c17.5-27,24.2-63.6,27.3-96.8
			c2.6-27.6,4.4-55.3,5.5-83c-102.9,8.7-206.2,14-309.3,19.3c-103.6,5.3-207.2,10.6-310.8,15.9c-54.2,2.8-108.3,5.6-162.5,8.1
			c21.2,3.8,43.6,8.3,59.3,23C622.3,647.7,628.3,658.9,637.2,667.6z"/>
		<g>
			<path class="st4" d="M76.2,670.4c11.6,3.3,24.3,2.3,35.2-2.9c2.6-1.2,5.1-2.7,7.9-3.1c3.5-0.5,6.9,0.8,10.3,1.6
				c11.4,2.4,23.1-1.1,34.7-0.9c13.3,0.2,28.5,4.7,38.7-3.8c-3.7-7.1-12.3-9.8-20.1-11.8c-18.9-4.8-47.8-12.8-66.6-3.5
				c-6.9,3.4-12.2,8.5-19.7,11.5C89.2,660.3,80.5,662.8,76.2,670.4z"/>
			<g>
				<path class="st5" d="M185.4,654.4c-9.7-2.2-17.8-9.3-23.3-17.6c-5.5-8.3-8.7-17.9-11.9-27.4c-7.9-23.6-2.5-47.1,12.2-67.2
					c6.1-8.3,18-14.4,28.1-16.5c11.6-2.3,24.9-3.8,31.1-13.9c3.4-5.5,13.8,0.9,14.2,7.3c0.2,2.8-0.9,5.5-0.9,8.2
					c0,2.8,1.8,6,4.5,5.9c1.3-0.1,2.4-0.8,3.5-1.6c3.7-2.8,7.1-6,10.2-9.5c2.8-3.1,5.5-6.8,5.4-11c-4.7,0.7-9.2,3.3-12,7.2
					c-2.7-6.7-5.4-13.3-8.1-20c-9.2-3.1-22.9,0.9-31.7,5.2c-8.7,4.3-16.8,10.1-25.9,13.5c-13.2,4.9-28.6,4.7-39.8,13.3
					c-12.7,9.8-15.4,27.8-14.8,43.9c0.6,16,3.5,32.6-1.5,47.8c-4.5,13.7-15.2,24.8-28,31.4c-3.5,1.8-6.8,6.6-10.6,7.3
					c-0.1,1.3,1.5,2,2.7,2.2c9.3,1.9,19.3-0.7,26.5-6.9c5.2-4.5,28.3,7.5,53.2-1.4C174.3,652.8,179.9,656.5,185.4,654.4z"/>
				<path class="st2" d="M73,510.1h286.4c0.6-20.2-7-42.3-23.7-53.7c-16.7-11.4-39.3-13.6-57.9-5.7c-3-27.5-21.6-55.7-46.8-67.1
					s-56.4-8.5-79,7.5S116,435.4,118.2,463c-11.1,1.4-25.1,9.9-33.5,17.3C76.4,487.7,71.1,499.1,73,510.1z"/>
				<path class="st2" d="M200.1,577.8h128.5c0.3-9.1-3.1-19-10.6-24.1c-7.5-5.1-17.6-6.1-26-2.5c-1.3-12.3-9.7-25-21-30.1
					c-11.3-5.1-25.3-3.8-35.4,3.4c-10.2,7.1-16.1,19.9-15.1,32.2c-5,0.6-11.3,4.4-15,7.8C201.6,567.8,199.3,572.9,200.1,577.8z"/>
			</g>
		</g>
		<g>
			<path class="st4" d="M1031.5,626c12.4,3.6,26.2,2.4,37.8-3.2c2.8-1.3,5.5-2.9,8.5-3.3c3.7-0.5,7.4,0.9,11.1,1.7
				c12.2,2.6,24.9-1.2,37.4-1c14.3,0.2,30.7,5.1,41.7-4.1c-4-7.6-13.2-10.6-21.6-12.7c-20.3-5.2-51.4-13.7-71.6-3.8
				c-7.4,3.7-13.1,9.1-21.2,12.3C1045.5,615,1036.1,617.8,1031.5,626z"/>
			<g>
				<path class="st5" d="M1148.9,608.7c-10.5-2.3-19.2-10-25-18.9s-9.4-19.3-12.8-29.4c-8.5-25.4-2.7-50.7,13.1-72.3
					c6.5-8.9,19.4-15.5,30.3-17.7c12.5-2.5,26.7-4.1,33.4-14.9c3.6-5.9,14.9,0.9,15.3,7.9c0.2,3-1,5.9-1,8.9c0,3,1.9,6.4,4.9,6.3
					c1.4-0.1,2.6-0.9,3.7-1.8c4-3,7.7-6.5,11-10.2c3-3.4,5.9-7.3,5.8-11.8c-5.1,0.7-9.8,3.6-12.9,7.8c-2.9-7.2-5.8-14.3-8.7-21.5
					c-9.9-3.4-24.6,1-34,5.6s-18,10.8-27.8,14.5c-14.2,5.2-30.8,5-42.8,14.3c-13.6,10.6-16.6,29.9-15.9,47.2
					c0.7,17.2,3.8,35-1.6,51.4c-4.8,14.7-16.3,26.7-30.1,33.8c-3.7,1.9-7.3,7.1-11.4,7.9c-0.1,1.4,1.6,2.1,2.9,2.4
					c10,2,20.8-0.8,28.5-7.4c5.6-4.8,30.4,8.1,57.2-1.5C1136.9,607,1143,610.9,1148.9,608.7z"/>
				<path class="st2" d="M1028,453.6h308c0.7-21.7-7.5-45.5-25.5-57.7c-18-12.3-42.3-14.7-62.3-6.1c-3.2-29.6-23.3-59.9-50.4-72.2
					c-27.1-12.3-60.6-9.1-85,8c-24.3,17.1-38.6,47.6-36.2,77.3c-11.9,1.5-27,10.6-36,18.6S1026,441.7,1028,453.6z"/>
				<path class="st2" d="M1164.7,526.4h138.1c0.3-9.8-3.4-20.4-11.4-25.9c-8.1-5.5-19-6.6-27.9-2.7c-1.4-13.3-10.4-26.9-22.6-32.4
					c-12.2-5.5-27.2-4.1-38.1,3.6c-10.9,7.7-17.3,21.3-16.3,34.7c-5.4,0.7-12.1,4.8-16.1,8.3
					C1166.3,515.6,1163.8,521.1,1164.7,526.4z"/>
			</g>
		</g>
		<path class="st6" d="M825.9,841.1c26.5-41.2,58.2-79,94-112.3c-4,20.6-8,41.2-12.1,61.9c6.1-7.7,13.1-14.7,20.9-20.7
			c0.6,7.5-0.2,15.2-2.3,22.4c18.7-11.9,32.8-30.9,38.9-52.3c5.4,15.6,8.6,32,9.5,48.6c14.5-16.8,35.4-27.9,57.4-30.7
			c-1,10.1-6.1,19.2-9.8,28.7c17.3-9.2,35.7-19.5,43.9-37.2c8.5-18.3,4.7-41.4,16.6-57.7c5-6.9,12.4-11.7,19.6-16.3
			c18.5-11.5,37.5-22.2,56.9-32c-7.7,5.1-16.3,11.6-22.1,18.7c-5.8,7.1-9.5,16.5-8.1,25.5c1.3,7.9,6.3,15.5,4.2,23.2
			c-3.1,11.4-19.6,14.9-22.5,26.3c-1.9,7.3,2.6,14.5,4.7,21.8c3.4,12.2-0.7,26.1-10.2,34.5c11.7-4.1,22.9,8,33.4,1.4
			c7.8-4.9,11.7-14.1,17.3-21.5c5.5-7.4,15.5-13.7,23.7-9.4c-4.6,6.8-3.4,14.7-2.4,22.8c7.5-5.7,15.1-11.4,22.6-17.2
			c11.3-8.5,22.6-17.2,31.6-28.1c5.4-6.5,10-13.9,16.4-19.3c9.7-8.2,22.7-11.3,35.1-14.1c-13.1,14-9.1,32.7-12.9,51.6
			c-4.5,22.3-12.1,44-22.6,64.2c-2.6,4.9-5.5,10-10.4,12.7c-3.5,1.9-7.6,2.4-11.6,2.8c-87.4,9.3-169.2,5.6-257.1,4.5
			c-21.7-0.3-49.4,11.8-70.6,7.3C874,846,850.2,836.6,825.9,841.1z"/>
		<path class="st6" d="M386.8,853.4c-20.7-48.2-8.3-104.3,13.1-152.2c21.4-47.9,51.4-92,67.4-141.9c6.2,83.9,11.9,171.3-19.3,249.5
			c24.5-40.8,63.7-74.3,107.3-93.4c-3.8,40.5-20.1,79.7-46.2,110.9c20.8-14.8,41.7-26.6,63.7-39.7c-6.9,15.6-8,32.3-11.6,49.1
			c13.9,2.4,27.7,4.8,41.6,7.2c-18.5-45.1-8.3-96.3,2.2-144c7.8-35.3,15.8-71.4,35.1-101.9c-5.5,36.9,5.7,73.9,10.8,110.9
			c5.4,39.3,4,79.6-4.2,118.4c16.9-18.8,30.7-36.9,43.8-58.6c6.5,18.9,10,38.9,10.1,58.9c26.4-44.1,60.9-89,99.8-122.6
			c-8.4,28.3-16.8,56.5-25.3,84.8c10.9-13.2,23.2-25.2,36.7-35.8c-6,12.7-8.2,27.2-6.1,41.1c15.7-11.8,27.8-26.4,46.5-32.5
			c-5.8,22.1-11.6,44.2-17.4,66.3c-1.3,5.1-2.8,10.3-6.3,14.2c-5.4,5.9-14.2,7.1-22.2,7.8c-118.7,10.6-238.5,9-356.8-4.8
			C431,842.8,404.9,848.1,386.8,853.4z"/>
		<path class="st6" d="M142.6,845.2c-14.2-75-25.8-150.5-34.7-226.3c26.1,51.7,52.6,104.5,62.2,161.6c0.5-11.5,5.6-13.4,9.8-24.1
			c6.2,12,10.9,24.7,14.1,37.8c13.7-67.5,18.6-131.5,11.3-199.9c16.5,71.4,27.8,142.2,30.2,215.5c10.3-16.1,22.5-28.5,34.9-43
			c-4.3,16.9-7.6,34.1-9.9,51.4c32.3-56,79.5-101.8,126-146.8C359,724.7,341,783.2,333.7,843c-14,2.4-27.9,7.7-42.1,8.2
			c-24.3,0.8-48.6,1.6-72.8,2.4C195.6,854.3,165.7,847,142.6,845.2z"/>
		<g>
			
				<ellipse transform="matrix(0.9999 -1.137314e-02 1.137314e-02 0.9999 -9.5066 7.9363)" class="st4" cx="693" cy="839.8" rx="630" ry="18.4"/>
			<path class="st7" d="M692.8,821.4c-141.1,1.6-271.3,4.4-376.3,7.9c-1.4,0.8-2.7,1.6-4.1,2.5c-3.2,2-6.5,4.4-7.9,7.9
				c-3.7,9.3,7.4,16.7,17.6,19.1c20.4,0.2,41.7,0.4,63.8,0.5c42.3-4.5,84.7-14.3,126.1-5.8c7.4,1.5,14.7,3.6,22,5.8
				c32.3-0.1,65.7-0.3,99.9-0.6c4.5-1.4,8.9-2.8,13.4-4.1c37.2-10.4,76.2-11.3,114.8-12.2c13.5-0.3,27.1-0.6,40.3,2.2
				c12.1,2.5,23.5,7.5,35.3,11.1c0.3,0.1,0.6,0.2,0.9,0.3c31.2-0.6,61.6-1.2,90.8-1.9c9-2.8,18-5.7,27.4-6.9
				c16.6-2.2,33.2,1.1,49.6,4.9c47-1.3,90.3-2.8,128.7-4.3c12.2-6.9,23.2-15.9,33.7-25.6C1053.1,819.8,882.8,819.3,692.8,821.4z"/>
			<path class="st7" d="M1199,832.2c-0.8-0.8-2.1-1.4-3.2-1.3c-1.2,0.1-2.4,0.4-3.2,1.3c-0.8,0.9-1.3,2-1.3,3.2c0,0.9,0.2,2,0.7,2.8
				c0.9,1.3,2.2,2.2,3.9,2.2s3-0.9,3.9-2.2c0.5-0.8,0.7-1.8,0.7-2.8C1200.3,834.2,1199.8,833,1199,832.2z"/>
			<path class="st7" d="M1225.9,830.7c-4.3,0-4.4,6.8,0,6.8C1230.2,837.4,1230.2,830.7,1225.9,830.7z"/>
			<path class="st7" d="M731.9,849.4c-3.1,0-3.1,4.9,0,4.9C735.1,854.3,735.1,849.4,731.9,849.4z"/>
			<path class="st7" d="M760,848.8c-5.7,0-5.7,8.9,0,8.9C765.7,857.7,765.8,848.8,760,848.8z"/>
			<path class="st7" d="M203.7,842.4c-2.1,0-3.7,2.1-3.1,4.1c0.1,0.4,0.2,0.8,0.4,1.3c0.3,1.2,1.5,2.2,2.8,2.1
				c1.3-0.1,2.4-0.8,2.8-2.1c0.1-0.4,0.2-0.8,0.4-1.3C207.4,844.5,205.8,842.4,203.7,842.4z"/>
			<path class="st7" d="M233.2,845.2c-4.1,0-4.1,6.4,0,6.4C237.3,851.6,237.3,845.2,233.2,845.2z"/>
			<path class="st7" d="M263.3,843.1c-3.3,0-3.3,5.1,0,5.1C266.6,848.2,266.6,843.1,263.3,843.1z"/>
		</g>
	</g>
	<g>
		<g>
			<path class="st8" d="M833.9,149.9c0,0,5.3,44.3,30.1,30.6l-1.3,9.4l23.7-5.4l-10.3-28.3c0,0,10.3-0.4,10.3-8.8
				c0-8.3-6.6-17.5-10.7-11.7c0,0-6-17.1-9.9-19.9C861.9,112.9,827.2,111.8,833.9,149.9z"/>
			<path class="st9" d="M866.8,148.3c1.1,2.9,2,5.9,3.4,8.7c0.8-0.1,0.9-0.5,1.7-0.5c0.3,0,0.6-0.1,0.8-0.3c0.1-0.2,0.1-0.5,0-0.8
				c-2.1-7-1.1-14.8,2.5-21.1c-1.6-4.2-6.2-16.1-9.4-18.5c-3.6-2.7-34-3.9-32.7,26.8c8.4-2.6,16.8-5,25.4-6.9
				C861.1,139.5,865.1,144,866.8,148.3z"/>
			<path class="st10" d="M863.9,181.4l-1.2,8.4l23.7-5.4l-4.5-12.3C876.3,175.8,870.2,179,863.9,181.4z"/>
			<g>
				<path class="st8" d="M870.4,614.8l8.1,67.5l1.1,146.7c0,0-40.9,18-33.5,17.8c7.4-0.2,63.2-1.3,63.2-1.3s17.2-118.4,16.7-133
					c-0.5-14.6-12.2-40.4-12.2-40.4l9.8-77.7C923.5,594.4,885.9,579.6,870.4,614.8z"/>
				<path class="st10" d="M923.5,594.4c0,0-37.6-14.8-53.1,20.4l6,50.2c13.6-0.7,27.1-4.1,39.4-9.8L923.5,594.4z"/>
			</g>
			<g>
				<path class="st8" d="M927.3,621.2l34.4,58.6l59.6,134.1c0,0-30.3,32.8-23.6,29.7c6.7-3.1,57.5-26.4,57.5-26.4
					s-31.5-115.4-37.8-128.6c-6.3-13.2-27.4-32.2-27.4-32.2l-22-75.2C967.8,581.3,927.4,582.7,927.3,621.2z"/>
				<path class="st10" d="M967.8,581.3c0,0-40.4,1.4-40.6,39.9l25.6,43.6c12.2-6.1,23.2-14.5,32.3-24.7L967.8,581.3z"/>
			</g>
			<g>
				<path class="st11" d="M799.5,614.8c-4.8-0.8-21.4,2.9-21.4,2.9L626.4,833.6c-1.2,1.7-0.9,4.1,0.8,5.4c1.7,1.4,4.2,1,5.6-0.7
					C653.8,810.9,804,615.5,799.5,614.8z"/>
				<path class="st12" d="M799.5,614.8c-4.8-0.8-21.4,2.9-21.4,2.9l-24,34.1c6,1.4,12.2,2.2,18.4,2.3
					C789.6,630.9,800.8,615,799.5,614.8z"/>
				<path class="st13" d="M887.5,177c0,0-35.1,8.7-44.4,22.5s-113.7,308.3-97.6,432.8c0,0,116,67.7,362.8-39.5
					C1108.2,592.8,1029.4,222.4,887.5,177z"/>
				<path class="st14" d="M1108.2,592.8c0,0-30.5-143.2-87.6-262.5c-12.5,57.6-32.8,112.6-65.4,161.8
					c-41.6,62.8-100.3,111.4-161.6,155.7C848.8,658.5,952.5,660.5,1108.2,592.8z"/>
				<g>
					<path class="st15" d="M779.8,603c0.3-36.1,2.9-72.2,7.5-108c9.3-72.1,26.4-142.9,47.1-212.5c9.3-31.2,19-62.8,24.4-95
						c-2.3,1.2-4.6,2.5-6.7,3.8c-16,61.6-38.1,121.4-53.2,183.3c-17.2,70.7-28.5,143.2-30.4,216.1c-0.4,17-0.3,34,0.4,51
						c3.5,1.1,7.4,2.2,11.7,3.2C779.9,631,779.7,617,779.8,603z"/>
					<path class="st15" d="M856.3,276.7c4.3-19.3,8.9-38.6,13.5-57.9c3.1-13.1,6.8-26.2,9.6-39.5c-2.2,0.7-4.8,1.6-7.5,2.6
						c-2.9,9.4-5.3,18.9-7.9,28.3c-4.8,17.2-9.4,34.4-13.8,51.8c-8.8,34.9-16.6,70.1-22.3,105.6c-11.3,70.3-15.4,141.9-12,213
						c1,20.1,2.4,40.2,4.6,60.2c0.4,3.7,0.9,7.4,1.3,11.1c3.7,0.3,7.5,0.6,11.4,0.9c-0.3-2.1-0.5-4.1-0.7-6.2
						c-1.7-17.4-3.3-34.9-4.3-52.4c-2.1-35.3-2.4-70.7-1-106.1C830,416.7,840.9,346.4,856.3,276.7z"/>
					<path class="st15" d="M878.8,641.3c-1-17.1-2.1-34.2-3.2-51.4c-2.3-35.1-4.7-70.2-6.4-105.3c-3.3-69-2.8-137.9,6.3-206.5
						c4.4-33.3,11.6-66.1,18.1-99c-1.7-0.7-3.5-1.3-5.3-1.9c-9.1,27.8-15,56.6-19.8,85.4c-5.7,33.9-9.2,68.2-10.7,102.5
						c-3.2,70.7,1.9,141.4,6.4,211.9c1.2,19.4,2.3,38.9,3.7,58.3c0.4,5.9,0.7,11.9,1.1,17.9c3.5-0.1,7-0.3,10.7-0.5
						C879.3,648.9,879,645.1,878.8,641.3z"/>
					<path class="st15" d="M937.7,607.7c-6.9-34.9-13.3-70-18.7-105.2c-10.6-69.5-16.6-140-14-210.4c0.7-19.3,2-38.5,4-57.7
						c1.6-14.9,3.8-29.7,5.6-44.6c-1.5-0.9-3-1.9-4.5-2.8c-7.8,29.4-11,60.5-13.1,90.6c-2.5,35-2.7,70.3-1,105.3
						c3.5,71,14.2,141.5,27.5,211.3c3.3,17.4,6.9,34.8,10.4,52.2c3.7-0.6,7.5-1.3,11.3-2C942.7,632.3,940.2,620,937.7,607.7z"/>
					<path class="st15" d="M979.3,525.5c-15.6-71.2-28.5-142.8-37.1-215.2c-2.3-19.7-4.3-39.6-4.7-59.5c-0.2-9.9,0-19.8,0.6-29.7
						c0.2-4,0.6-8,1-12c-1.9-1.8-3.8-3.5-5.7-5.1c-0.6,3.6-1,7.2-1.4,10.6c-1.2,8.8-1.9,17.7-2.2,26.6c-0.5,18.3,0.5,36.5,2,54.7
						c3.1,36.4,8.2,72.8,14,108.9c5.9,36.5,12.8,72.8,20.8,108.8c7.2,32.5,14.8,65.1,26,96.5c2.6,7.2,5.3,14.3,8.2,21.4
						c2.3-0.7,4.6-1.3,7-2C995.5,595.7,987,560.3,979.3,525.5z"/>
					<path class="st15" d="M1053.6,599.5c-8.8-31.3-17.6-62.6-26.6-93.9c-17.6-61.4-36.9-122.7-51.2-185c-4-17.5-7.5-35.1-10.2-52.8
						c-1.7-11.4-2.9-22.8-4-34.2c-1.9-2.4-3.9-4.7-5.9-7c-0.7,27.1,3.7,54.9,8.6,81.2c5.9,31.6,13.9,62.8,22.5,93.8
						c17.4,63.2,35.1,126.2,52.8,189.3c2.4,8.6,4.8,17.3,7.2,25.9c3.5-1.2,7-2.5,10.6-3.8C1056.2,608.6,1054.9,604.1,1053.6,599.5z"
						/>
					<path class="st15" d="M1009.9,337.8c-5.4-18.9-10.7-37.9-15.7-57c-3-5.1-6.1-10-9.2-14.9c24.7,104.4,54.8,207.5,85.2,310.3
						c2.8,9.6,5.7,19.2,8.7,28.7c2.6-1,5.2-2.1,7.9-3.2C1062.6,513.4,1035.2,425.9,1009.9,337.8z"/>
				</g>
			</g>
			<path class="st10" d="M878.3,141.6c0.6-0.4,1.3-0.8,2-0.8c1.2,0,2.1,1.1,2.3,2.3c0.1,1.2-0.4,2.3-1.1,3.3
				c-1.1,1.5-5.4,4.7-6.6,2.3C873.8,146.7,876.8,142.8,878.3,141.6z"/>
		</g>
		<g>
			<path class="st8" d="M584.6,508.8c-0.3-0.9-0.6-1.8-0.8-2.7c0.1,0,0.2,0,0.2,0s10.8-125.7,4-147.8s-0.6-70.8,0-94.8
				s-15.1-38-15.1-38l-13.3,270.9c-0.8,1.8-1.3,3.8-1.8,5.7c-2.5,8.3-6.9,16.1-7.8,24.8c-0.7,7.3,1.2,14.8,5.3,20.8
				c1.7,2.6,4,4.9,6.9,5.9c1.8,0.6,3.7,0.7,5.5,0.6c5.1-0.2,10.2-1.8,14-5.1c5.5-4.7,7.7-12.2,7.5-19.4S586.9,515.6,584.6,508.8z"/>
			<g>
				<g>
					<path class="st8" d="M406.6,573.6l-21.9,135.9c0,0-8.6,22.5-7.9,38.9s-3.3,78-3.3,78s-36.9,15.1-28.3,18.5
						c8.6,3.3,45.8,0,45.8,0s25.2-91.4,26.2-103.8s1-38.3,1-38.3s41.2-134.6,42.5-138.5C462.1,560.4,420.7,547.5,406.6,573.6z"/>
					<path class="st10" d="M460.8,564.3c1.4-3.9-40.1-16.8-54.2,9.3l-13,80.9c16.3-13.4,33.3-25.9,50.9-37.5
						C452.9,589.6,460.2,565.9,460.8,564.3z"/>
				</g>
				<g>
					<path class="st8" d="M554.7,573.6l21.9,135.9c0,0,8.6,22.5,7.9,38.9s3.3,78,3.3,78s36.9,15.1,28.3,18.5c-8.6,3.3-45.8,0-45.8,0
						S545,753.5,544,741.1c-1-12.4-1-38.3-1-38.3s-41.2-134.6-42.5-138.5C499.1,560.4,540.6,547.5,554.7,573.6z"/>
					<path class="st10" d="M500.5,564.3c-1.4-3.9,40.1-16.8,54.2,9.3l13,80.9c-16.3-13.4-33.3-25.9-50.9-37.5
						C508.4,589.6,501.1,565.9,500.5,564.3z"/>
				</g>
				<path class="st12" d="M573,225.5c0,0-126-13.7-173.3,14c0,0,29.4,168.3,27.9,204.2c0,0,104.4,4.1,137-13
					C564.6,430.7,590.8,315.7,573,225.5z"/>
				<g>
					<path class="st10" d="M576.5,308.2c-9.5,0.8-18.9,2.2-28.5,2.1c-10.6-0.1-18.9-4.5-26.3-12c-0.6-0.6-1.5,0.3-0.9,0.9
						c6.8,7.4,12.1,13.7,22.7,14.8c10.9,1.2,22.9,0.5,33.5-2.7C578.6,310.9,578.4,308.1,576.5,308.2z"/>
					<path class="st10" d="M558.5,303.7c-4.4-1.1-8.7-0.8-13.1-0.7c-2.5,0.1-2.5,3.8,0,3.9c4.5,0.1,8.8,0.4,13.1-0.7
						C559.7,305.9,559.7,304,558.5,303.7z"/>
				</g>
				<g>
					<path class="st10" d="M503.4,297.9c-4.2,3.2-7.9,6.8-12.4,9.5c-4.7,2.8-9.8,4.8-15,6.2c-11.9,3.2-24.5,3.3-36.7,3.4
						c-1,0-1,1.6,0,1.6c13.1,0.6,26.3,1.2,39.2-2.2c9.6-2.5,21.7-7.7,26.4-17.1C505.3,298.5,504.3,297.2,503.4,297.9z"/>
					<path class="st10" d="M475.2,304.7c-5.3,0.1-10.6,0.9-15.9,1.5c-2.3,0.3-2.3,4,0,3.7c5.5-0.7,10.9-1.3,16.2-2.5
						C477.1,307,476.7,304.7,475.2,304.7z"/>
				</g>
				<path class="st13" d="M569,351.3c-23.2-3.8-59-12.6-73.9-18.6c-19.8-8-52.2-80.6-62.5-104.6c-12.8,2.6-24.2,6.3-32.9,11.4
					c0,0,29.4,168.3,27.9,204.2c0,0,104.4,4.1,137-13c0,0,12.9-21,18.8-59.6C584.8,361.6,578.4,352.8,569,351.3z"/>
				<path class="st10" d="M403.8,245.2c-1,0.5-3.1-6.2-4.1-5.7c0,0,29.4,168.3,27.9,204.2c0,0,7.6,0.3,19.3,0.4
					c-3.2-18.3-3.1-37.2-5.1-55.8C436.3,336.7,415.8,295.7,403.8,245.2z"/>
				<path class="st10" d="M522.2,391.4c0.7-1.4,0.7-3.1,0.7-4.8c0-3,0-6-0.1-9c0-1,0-2-0.6-2.8c-1-1.6-3.3-1.5-5.2-1.2
					c-12.3,1.9-24.3,5.8-36.1,9.7c-18.8,6.2-37.7,12.3-56.5,18.5c1.7,14.6,2.9,27.2,3.1,35.9c32.7-8.5,63.8-23.1,91.2-42.9
					C520.1,393.9,521.5,392.9,522.2,391.4z"/>
				<path class="st10" d="M473.1,175.4l0.7,43.6c0,0,16,4.3,19.7,2.3l8.1-45.8C501.6,175.4,480.2,169.9,473.1,175.4z"/>
				<path class="st12" d="M489.1,211.7c-1.3,0.4-2.6,0.8-4,0.6c-2.3-0.5-3.8-2.8-4.8-4.9c-2.9-5.9-5.2-12.1-7-18.4l-1.2,36.9
					c0,0,17.7,3.1,21.3,1l2.1-17.7C493.4,210.1,491.3,211,489.1,211.7z"/>
				<g>
					<g>
						<path class="st12" d="M455.9,174c0.1,4.2,3.5,7.9,7.5,8.9c7.5,1.7,16.6-5.1,9.6-11.9C468,165.9,455.7,163.3,455.9,174z"/>
						<path class="st10" d="M464.5,170.9c-1.9,0.3-3.7,1.8-3.8,3.7c0,0.3,0,0.7,0.2,1c0.2,0.5,0.7,1,1.2,1.3c1.7,1,3.7,1,5.6,0.6
							c1.2-0.3,4.8-0.9,5.4-2.1C474.9,172.2,466.3,170.6,464.5,170.9z"/>
					</g>
					<g>
						<path class="st12" d="M534.1,174c-0.1,4.2-3.5,7.9-7.5,8.9c-7.5,1.7-16.6-5.1-9.6-11.9C522,165.9,534.2,163.3,534.1,174z"/>
						<path class="st10" d="M525.4,170.9c1.9,0.3,3.7,1.8,3.8,3.7c0,0.3,0,0.7-0.2,1c-0.2,0.5-0.7,1-1.2,1.3c-1.7,1-3.7,1-5.6,0.6
							c-1.2-0.3-4.8-0.9-5.4-2.1C515.1,172.2,523.7,170.6,525.4,170.9z"/>
					</g>
					<path class="st12" d="M471.4,157.2c0,0,0.1,40.5,5.1,43s30.7,4.9,35.3,0.4s14.8-46.7,10.7-46.7
						C518.5,153.9,496.5,133.8,471.4,157.2z"/>
				</g>
				<path class="st13" d="M374,636.2c3.3,1.9,7.4,0.1,10.7-1.8c30.1-17.2,58.2-38.2,83.3-62.1c7.9-7.5,15.9-16.3,16.6-27.2
					c0.1-1.8,0-3.7-1-5.2c-1.3-1.9-3.6-2.6-5.8-3.2c-20.5-5.3-42.8-2.3-61.5,7.2c-9.1,4.6-17.8,10.9-24.7,18.5
					c-7,7.8-9.4,19.3-11.9,29.3C376.1,606.3,374.2,621.3,374,636.2z"/>
				<path class="st13" d="M574.2,622.3c-2.7,1.6-6.1,0.1-8.8-1.5c-24.9-14.3-48.1-31.5-68.9-51.4c-6.5-6.2-13.2-13.5-13.7-22.5
					c-0.1-1.5,0-3.1,0.9-4.3c1.1-1.5,3-2.2,4.8-2.6c16.9-4.4,35.3-1.9,50.9,6c7.5,3.8,14.7,9,20.4,15.3c5.8,6.4,7.7,16,9.8,24.2
					C572.4,597.6,574,609.9,574.2,622.3z"/>
				<path class="st10" d="M416.3,581c0,0,101.5,17.2,163.7-6.8l-28.5-124.4L416.3,581z"/>
				<path class="st16" d="M417.9,455.9l-43.2,139.2c0,0,165.3-25.4,197.4-66.2l-10.4-85.3C561.7,443.6,428,441.4,417.9,455.9z"/>
				<g>
					<path class="st17" d="M570.7,517.3c-2.8,1.2-5.5,2.4-8.2,3.4c-9.4,3.7-18.8,7.3-28.3,10.8c-18.6,6.9-37.4,13.4-56.3,19.4
						c-18.9,6-38,11.8-57.1,17c-13.8,3.8-27.5,7.9-41.3,11.7l-2.3,7.5c15.4-3.1,30.8-6.1,46.1-10.1c19.5-5.1,38.9-10.7,58.1-16.8
						c19.2-6.1,38.3-12.7,57.2-19.7c9.5-3.5,18.9-7.1,28.3-10.8c1.7-0.7,3.4-1.3,5.1-2L570.7,517.3z"/>
					<path class="st17" d="M539.3,509.3c-18.2,6.5-36.4,12.9-54.6,19.3c-33.2,11.7-66.5,23.1-99.9,33.9l-2.3,7.4
						c35-10.3,70-21,104.7-32.5c18.3-6.1,36.5-12.4,54.7-18.9c9.2-3.3,18.5-6.6,27.7-10c0,0,0.1,0,0.1,0l-1.2-9.9
						c-0.5,0.2-1,0.4-1.5,0.5C557.7,502.6,548.5,506,539.3,509.3z"/>
					<path class="st17" d="M541.2,492c-18,5.6-36,11.2-53.8,17.3c-32.5,11-64.7,22.6-96.8,34.7l-2.5,8.1
						c33.6-12.2,67.4-23.9,101.5-34.8c17.9-5.8,35.9-11.5,53.9-17.1c7.9-2.4,16.2-4.6,24.3-7l-1.1-9.3
						C558,486.5,549.5,489.5,541.2,492z"/>
					<path class="st17" d="M551.9,477.7c-18.6,4.1-37.3,7.9-55.5,13.6c-33.6,10.4-65.6,25.5-99.9,33.7l-2,6.5
						c36-7.2,69.8-22.4,105-32.5c18.1-5.1,36.4-8.9,54.7-12.9c4.1-0.9,8.2-1.7,12.4-2.6l-1.1-9C561,475.6,556.4,476.7,551.9,477.7z"
						/>
				</g>
				<path class="st10" d="M417.9,455.9L402,507.2c19.6-2.4,38.9-8.8,58.2-13.4c34.7-8.3,70.8-11,105.2-19.6l-3.8-30.7
					C561.7,443.6,428,441.4,417.9,455.9z"/>
				<path class="st16" d="M572.3,450.2l-1.8-11c-0.8-4.9-5-8.5-10-8.5l-128.2-0.3c-4.7,0-9,2.6-11.2,6.7
					c-6.8,12.8-6.2,30.9-6.2,30.9c9.8,4.5,120.8-6.5,151-9.6C570,458.1,572.9,454.3,572.3,450.2z"/>
				<g>
					
						<rect x="94" y="524.8" transform="matrix(0.4814 -0.8765 0.8765 0.4814 -227.8796 675.5497)" class="st10" width="725.8" height="11"/>
				</g>
				<path class="st12" d="M563,363.9c1.2-1.4,1.2-3.8-0.1-5.2c-0.4-0.4-0.9-0.8-1.1-1.3c-0.2-0.5-0.2-1-0.2-1.5
					c0-4.1-4.5-7.5-8.5-6.4c-0.6,0.2-1.3,0.4-2,0.2c-0.9-0.3-1.1-1.4-1.8-2c-1.1-1-2.8-0.3-4.2,0.3c-4.2,2.1-8.5,4.3-11.5,7.9
					c-0.8,0.9-1.5,1.9-2.2,3c-15.3,2.2-140.6,21.4-172.1,47.9l63.8-96.8c0,0-7.4-64.4-23.6-70.4c0,0-113.4,216.6-86.4,213.6
					c25.1-2.8,193.4-64.5,217-73.1c2.7,0.9,5.7,1,8.4,0.2c4.6-1.3,8.3-4.7,11-8.7c2.5-0.5,5.4-0.1,7.4,1.4c0.9,0.7,1.8,1.7,3,1.7
					c2.5-1.4,3.4-4.6,1.7-7c-0.4-0.6-0.6-1.6-0.2-2.2S562.6,364.4,563,363.9z"/>
				<path class="st5" d="M362,404.8c-0.9,0.6-1.7,1.3-2.5,1.9l0.9-1.4c-15.3,5.2-30.7,10.5-45.5,17.2c-6.4,19-8.2,31.3-1.6,30.6
					c4-0.4,11.5-2.3,21.4-5.3c7.9-15.3,17.3-29.8,27.9-43.3C362.4,404.6,362.2,404.7,362,404.8z"/>
				<path class="st5" d="M407.2,714c-5.4,2-12.6,7.6-15.1-1.1c-1.9-6.8,2.6-13.7,0.8-20.4c-0.2-0.7-1.3-1.1-1.8-0.5
					c-3.3,3.9-4.4,10.1-5.2,15c-0.7,4.6-0.3,9.3,2.6,13.2c6,8,16.8,4.8,21-3.2C410.4,715.6,409.1,713.3,407.2,714z"/>
				<path class="st5" d="M569,703.4c-3.7,0-6.9,2-10.8,1.5c-4.6-0.6-9.2-4.2-10.4-8.8c-0.4-1.5-2.6-0.9-2.3,0.6
					c1.2,5.9,3.8,10.9,9.8,13.2c4.7,1.8,13,1.8,15.5-3.5C571.4,705.1,570.7,703.4,569,703.4z"/>
				<g>
					<path class="st18" d="M439.3,317.1c-1,0-1,1.6,0,1.6c13.1,0.6,26.3,1.2,39.2-2.2c0,0,0,0,0.1,0c-0.7-0.9-1.4-1.9-2.1-2.9
						c-0.1,0-0.3,0.1-0.4,0.1C464.1,316.8,451.5,316.9,439.3,317.1z"/>
					<path class="st18" d="M459.3,309.9c4.5-0.6,9-1.1,13.5-1.9c-0.6-1-1.3-2-1.9-3c-3.9,0.3-7.7,0.8-11.6,1.3
						C457,306.5,457,310.2,459.3,309.9z"/>
				</g>
			</g>
		</g>
	</g>
</g>
</svg>
